<svg width="16" height="17" viewBox="0 0 16 17" fill="none" xmlns="http://www.w3.org/2000/svg">
<path fill-rule="evenodd" clip-rule="evenodd" d="M5 1V3H11V1H12V3H13C14.1046 3 15 3.89543 15 5V15C15 16.1046 14.1046 17 13 17H3C1.89543 17 1 16.1046 1 15V5C1 3.89543 1.89543 3 3 3H4V1H5ZM13 4H3C2.44772 4 2 4.44772 2 5V15C2 15.5523 2.44772 16 3 16H13C13.5523 16 14 15.5523 14 15V5C14 4.44772 13.5523 4 13 4ZM7 11V14H4V11H7ZM12 11V14H9V11H12ZM6 12H5V13H6V12ZM11 12H10V13H11V12ZM7 6V9H4V6H7ZM12 6V9H9V6H12ZM6 7H5V8H6V7ZM11 7H10V8H11V7Z" fill="#333333"/>
</svg>
